<svg xmlns="http://www.w3.org/2000/svg" xmlns:xlink="http://www.w3.org/1999/xlink" viewBox="0 0 394.61 133.86"><defs><style>.cls-1{fill:none;clip-rule:evenodd;}.cls-2{fill:#a611bd;}.cls-2,.cls-4,.cls-5,.cls-7,.cls-8{fill-rule:evenodd;}.cls-3{clip-path:url(#clip-path);}.cls-4{fill:#7f1290;}.cls-10,.cls-5{fill:#ff0068;}.cls-6{clip-path:url(#clip-path-2);}.cls-7{fill:#d90a5c;}.cls-8,.cls-9{fill:#ffa300;}.cls-11{fill:#565656;}</style><clipPath id="clip-path"><path class="cls-1" d="M227,72.63V115.8a18.11,18.11,0,0,1-18.06,18.06h-.27A18.11,18.11,0,0,1,190.6,115.8v-34c-.23-18.5-8.51-30.11-25-34.68-14.38-3.49-25.86,3-35.54,15.74a60,60,0,0,0-17.52-32.71l-.08-.22C125.38,10.71,163.39.32,193,18.34c19.77,12,32.84,28.9,34,54.29Z"/></clipPath><clipPath id="clip-path-2"><path class="cls-1" d="M135.54,72.63V115.8a18.11,18.11,0,0,1-18.07,18.06h-.26A18.11,18.11,0,0,1,99.14,115.8v-34c-.23-18.5-8.5-30.11-25-34.68-16.35-4-28.95,5-39.42,21.33V18.15c22.14-13,45.4-12.37,66.78.19,19.77,12,32.84,28.9,34,54.29Zm-18.07,35.56a8.71,8.71,0,1,1-8.71,8.71,8.71,8.71,0,0,1,8.71-8.71Z"/></clipPath></defs><title>Ativo 1</title><g id="Camada_2" data-name="Camada 2"><g id="Layer_1" data-name="Layer 1"><path class="cls-2" d="M227,72.63V115.8a18.11,18.11,0,0,1-18.06,18.06h-.27A18.11,18.11,0,0,1,190.6,115.8v-34c-.23-18.5-8.51-30.11-25-34.68-14.38-3.49-25.86,3-35.54,15.74a60,60,0,0,0-17.52-32.71l-.08-.22C125.38,10.71,163.39.32,193,18.34c19.77,12,32.84,28.9,34,54.29Z"/><g class="cls-3"><path class="cls-4" d="M103.21,32.35l12.41-12.41c7.54,5.73,16,15.3,27,36.14L129.56,72.63,103.21,32.35Z"/></g><path class="cls-5" d="M135.54,72.63V115.8a18.11,18.11,0,0,1-18.07,18.06h-.26A18.11,18.11,0,0,1,99.14,115.8v-34c-.23-18.5-8.5-30.11-25-34.68-16.35-4-28.95,5-39.42,21.33V18.15c22.14-13,45.4-12.37,66.78.19,19.77,12,32.84,28.9,34,54.29Zm-18.07,35.56a8.71,8.71,0,1,1-8.71,8.71,8.71,8.71,0,0,1,8.71-8.71Z"/><g class="cls-6"><polygon class="cls-7" points="26.02 9.27 48.23 9.27 48.23 71.33 26.02 71.33 26.02 9.27 26.02 9.27"/></g><path class="cls-8" d="M18.06,0h.27A18.12,18.12,0,0,1,36.39,18.06V115.8a18.11,18.11,0,0,1-18.06,18.06h-.27A18.11,18.11,0,0,1,0,115.8V18.06A18.12,18.12,0,0,1,18.06,0Zm.14,108.19a8.71,8.71,0,1,1-8.71,8.71,8.71,8.71,0,0,1,8.71-8.71Z"/><circle class="cls-9" cx="18.2" cy="115.74" r="12.67"/><circle class="cls-10" cx="117.53" cy="115.74" r="12.67"/><path class="cls-11" d="M249.64,15.6a6.84,6.84,0,0,1,2-4.92,6.67,6.67,0,0,1,4.92-2,6.85,6.85,0,0,1,5,2,6.68,6.68,0,0,1,2.06,4.92V126.89a6.55,6.55,0,0,1-2.06,4.92,6.9,6.9,0,0,1-5,2,6.91,6.91,0,0,1-6.94-7V15.6Z"/><path class="cls-11" d="M332.25,71.13,289.69,20.18A6.5,6.5,0,0,1,288,15.6a6.49,6.49,0,0,1,2.09-4.92,7.06,7.06,0,0,1,10,.11l41.23,49.39,41.34-49.39a6.89,6.89,0,0,1,5-2.13,6.8,6.8,0,0,1,4.92,2,6.66,6.66,0,0,1,2,4.92A6.82,6.82,0,0,1,393,20.18L350.36,71.13l43,51.53a7.42,7.42,0,0,1,1.22,4.23,6.64,6.64,0,0,1-2,4.92,6.81,6.81,0,0,1-4.92,2A5.85,5.85,0,0,1,383,131.7L341.33,82l-41.58,49.7a5.83,5.83,0,0,1-4.69,2.14,6.86,6.86,0,0,1-5-2,6.47,6.47,0,0,1-2.09-4.92,7.23,7.23,0,0,1,1.33-4.23l42.91-51.53Z"/></g></g></svg>