<svg xmlns="http://www.w3.org/2000/svg" viewBox="0 0 394.61 133.86"><defs><clipPath id="clip-path"><path class="cls-1" d="M227 72.63v43.17a18.11 18.11 0 01-18.06 18.06h-.27a18.11 18.11 0 01-18.07-18.06v-34c-.23-18.5-8.51-30.11-25-34.68-14.38-3.49-25.86 3-35.54 15.74a60 60 0 00-17.52-32.71l-.08-.22C125.38 10.71 163.39.32 193 18.34c19.77 12 32.84 28.9 34 54.29z"/></clipPath><clipPath id="clip-path-2"><path class="cls-1" d="M135.54 72.63v43.17a18.11 18.11 0 01-18.07 18.06h-.26a18.11 18.11 0 01-18.07-18.06v-34c-.23-18.5-8.5-30.11-25-34.68-16.35-4-28.95 5-39.42 21.33v-50.3c22.14-13 45.4-12.37 66.78.19 19.77 12 32.84 28.9 34 54.29zm-18.07 35.56a8.71 8.71 0 11-8.71 8.71 8.71 8.71 0 018.71-8.71z"/></clipPath><style>.cls-1{fill:none;clip-rule:evenodd}</style></defs><g id="Camada_2" data-name="Camada 2"><g id="Layer_1" data-name="Layer 1"><path d="M227 72.63v43.17a18.11 18.11 0 01-18.06 18.06h-.27a18.11 18.11 0 01-18.07-18.06v-34c-.23-18.5-8.51-30.11-25-34.68-14.38-3.49-25.86 3-35.54 15.74a60 60 0 00-17.52-32.71l-.08-.22C125.38 10.71 163.39.32 193 18.34c19.77 12 32.84 28.9 34 54.29z" fill-rule="evenodd" fill="#a611bd"/><g clip-path="url(#clip-path)"><path d="M103.21 32.35l12.41-12.41c7.54 5.73 16 15.3 27 36.14l-13.06 16.55-26.35-40.28z" fill="#7f1290" fill-rule="evenodd"/></g><path d="M135.54 72.63v43.17a18.11 18.11 0 01-18.07 18.06h-.26a18.11 18.11 0 01-18.07-18.06v-34c-.23-18.5-8.5-30.11-25-34.68-16.35-4-28.95 5-39.42 21.33v-50.3c22.14-13 45.4-12.37 66.78.19 19.77 12 32.84 28.9 34 54.29zm-18.07 35.56a8.71 8.71 0 11-8.71 8.71 8.71 8.71 0 018.71-8.71z" fill="#ff0068" fill-rule="evenodd"/><g clip-path="url(#clip-path-2)"><path fill="#d90a5c" fill-rule="evenodd" d="M26.02 9.27h22.21v62.06H26.02V9.27z"/></g><path d="M18.06 0h.27a18.12 18.12 0 0118.06 18.06v97.74a18.11 18.11 0 01-18.06 18.06h-.27A18.11 18.11 0 010 115.8V18.06A18.12 18.12 0 0118.06 0zm.14 108.19a8.71 8.71 0 11-8.71 8.71 8.71 8.71 0 018.71-8.71z" fill="#ffa300" fill-rule="evenodd"/><circle cx="18.2" cy="115.74" r="12.67" fill="#ffa300"/><circle cx="117.53" cy="115.74" r="12.67" fill="#ff0068"/><path d="M249.64 15.6a6.84 6.84 0 012-4.92 6.67 6.67 0 014.92-2 6.85 6.85 0 015 2 6.68 6.68 0 012.06 4.92v111.29a6.55 6.55 0 01-2.06 4.92 6.9 6.9 0 01-5 2 6.91 6.91 0 01-6.94-7V15.6zm82.61 55.53l-42.56-50.95A6.5 6.5 0 01288 15.6a6.49 6.49 0 012.09-4.92 7.06 7.06 0 0110 .11l41.23 49.39 41.34-49.39a6.89 6.89 0 015-2.13 6.8 6.8 0 014.92 2 6.66 6.66 0 012 4.92 6.82 6.82 0 01-1.58 4.6l-42.64 50.95 43 51.53a7.42 7.42 0 011.22 4.23 6.64 6.64 0 01-2 4.92 6.81 6.81 0 01-4.92 2 5.85 5.85 0 01-4.66-2.11L341.33 82l-41.58 49.7a5.83 5.83 0 01-4.69 2.14 6.86 6.86 0 01-5-2 6.47 6.47 0 01-2.09-4.92 7.23 7.23 0 011.33-4.23l42.91-51.53z" fill="#565656"/></g></g></svg>